<svg width="202" height="183" viewBox="0 0 202 183" fill="none" xmlns="http://www.w3.org/2000/svg">
<path d="M96.0519 27.8948C98.9549 25.6097 103.045 25.6097 105.948 27.8948L194.014 97.2138C198.083 100.417 198.083 106.583 194.014 109.786L105.948 179.105C103.045 181.39 98.9549 181.39 96.0519 179.105L7.98627 109.786C3.91703 106.583 3.91703 100.417 7.98627 97.2138L96.0519 27.8948Z" fill="#30323D"/>
<path d="M96.0519 3.89476C98.9549 1.60973 103.045 1.60973 105.948 3.89477L194.014 73.2138C198.083 76.4168 198.083 82.5832 194.014 85.7862L105.948 155.105C103.045 157.39 98.9549 157.39 96.0519 155.105L7.98627 85.7862C3.91703 82.5832 3.91703 76.4168 7.98627 73.2138L96.0519 3.89476Z" fill="#D6E3F8"/>
<path d="M115.784 59.2C116.808 59.2 117.64 59.5413 118.28 60.224C118.92 60.9067 119.24 61.76 119.24 62.784V100.096C119.24 101.205 118.856 102.144 118.088 102.912C117.363 103.637 116.445 104 115.336 104C114.781 104 114.205 103.915 113.608 103.744C113.053 103.531 112.627 103.253 112.328 102.912L87.176 70.976L88.84 69.952V100.416C88.84 101.44 88.4987 102.293 87.816 102.976C87.176 103.659 86.3227 104 85.256 104C84.232 104 83.4 103.659 82.76 102.976C82.12 102.293 81.8 101.44 81.8 100.416V63.104C81.8 61.9947 82.1627 61.0773 82.888 60.352C83.656 59.584 84.5947 59.2 85.704 59.2C86.3013 59.2 86.92 59.328 87.56 59.584C88.2 59.7973 88.6693 60.1387 88.968 60.608L113.352 91.712L112.264 92.48V62.784C112.264 61.76 112.584 60.9067 113.224 60.224C113.864 59.5413 114.717 59.2 115.784 59.2Z" fill="#30323D"/>
</svg>
